# xmcd
#
# Track frame offsets: 
#        150
#        19658
#        39370
#        58501
#        78936
#        98266
#        118306
#        137268
#        155866
#        175168
#
# Disc length: 2628 seconds
#
# Revision: 0
# Processed by: cddbd v1.5.1PL2 Copyright (c) Steve Scherf et al.
# Submitted via: ExactAudioCopy v0.95b3
#
DISCID=710a420a
DTITLE=Little Kim Stewart - Bootleg Baby 
DYEAR=2004
DGENRE=Blues
TTITLE0=Swing That Thing
TTITLE1=Take Him To Court
TTITLE2=Bootleg Baby
TTITLE3=Lies
TTITLE4=Southern Soul Woman
TTITLE5=Keep The Man
TTITLE6=Can't Make Love
TTITLE7=All This Love For You
TTITLE8=You Turn Me On
TTITLE9=Been So Long
EXTD=
EXTT0=
EXTT1=
EXTT2=
EXTT3=
EXTT4=
EXTT5=
EXTT6=
EXTT7=
EXTT8=
EXTT9=
PLAYORDER=
